<svg width="515" height="297" viewBox="0 0 515 297" fill="none" xmlns="http://www.w3.org/2000/svg">
<rect width="515" height="297" fill="white"/>
<g filter="url(#filter0_d_7_2)">
<path d="M106.5 80L163.5 135L226.5 74.5L212 60.5L267 49.5L254.5 103.5L239 87.5L220 109.5L258.5 148L138 269L17 147L73.5 91.5L84 101.5L37.5 148L51 161V145L84 112V195L98.5 209V116.5L131.5 149.5V242L138.5 248.5L146 241V163.5L163.5 180L178.5 165L179 208L193.5 194V150.5L213.5 133L226.5 146V160.5L239 148L210.5 120L162.5 167.5L80 85.5L138 27L198.5 87.5L188.5 97.5L138 47.5L106.5 80Z" fill="#5B16A1"/>
<path d="M106.5 80L163.5 135L226.5 74.5L212 60.5L267 49.5L254.5 103.5L239 87.5L220 109.5L258.5 148L138 269L17 147L73.5 91.5L84 101.5L37.5 148L51 161V145L84 112V195L98.5 209V116.5L131.5 149.5V242L138.5 248.5L146 241V163.5L163.5 180L178.5 165L179 208L193.5 194V150.5L213.5 133L226.5 146V160.5L239 148L210.5 120L162.5 167.5L80 85.5L138 27L198.5 87.5L188.5 97.5L138 47.5L106.5 80Z" fill="url(#paint0_linear_7_2)"/>
<path d="M106.5 80L163.5 135L226.5 74.5L212 60.5L267 49.5L254.5 103.5L239 87.5L220 109.5L258.5 148L138 269L17 147L73.5 91.5L84 101.5L37.5 148L51 161V145L84 112V195L98.5 209V116.5L131.5 149.5V242L138.5 248.5L146 241V163.5L163.5 180L178.5 165L179 208L193.5 194V150.5L213.5 133L226.5 146V160.5L239 148L210.5 120L162.5 167.5L80 85.5L138 27L198.5 87.5L188.5 97.5L138 47.5L106.5 80Z" stroke="#5B16A1"/>
</g>
<g filter="url(#filter1_di_7_2)">
<path d="M323.11 212V93H350.65V212H323.11ZM404.221 140.94H461.511V162.36H404.221V140.94ZM406.261 189.9H471.031V212H378.891V93H468.821V115.1H406.261V189.9Z" fill="#5603AD"/>
<path d="M323.11 212V93H350.65V212H323.11ZM404.221 140.94H461.511V162.36H404.221V140.94ZM406.261 189.9H471.031V212H378.891V93H468.821V115.1H406.261V189.9Z" fill="url(#paint1_linear_7_2)"/>
<path d="M323.11 212V93H350.65V212H323.11ZM404.221 140.94H461.511V162.36H404.221V140.94ZM406.261 189.9H471.031V212H378.891V93H468.821V115.1H406.261V189.9Z" fill="url(#paint2_linear_7_2)"/>
</g>
<defs>
<filter id="filter0_d_7_2" x="16.2912" y="26.2914" width="265.371" height="251.418" filterUnits="userSpaceOnUse" color-interpolation-filters="sRGB">
<feFlood flood-opacity="0" result="BackgroundImageFix"/>
<feColorMatrix in="SourceAlpha" type="matrix" values="0 0 0 0 0 0 0 0 0 0 0 0 0 0 0 0 0 0 127 0" result="hardAlpha"/>
<feOffset dx="10" dy="4"/>
<feGaussianBlur stdDeviation="2"/>
<feComposite in2="hardAlpha" operator="out"/>
<feColorMatrix type="matrix" values="0 0 0 0 0 0 0 0 0 0 0 0 0 0 0 0 0 0 0.25 0"/>
<feBlend mode="normal" in2="BackgroundImageFix" result="effect1_dropShadow_7_2"/>
<feBlend mode="normal" in="SourceGraphic" in2="effect1_dropShadow_7_2" result="shape"/>
</filter>
<filter id="filter1_di_7_2" x="323.11" y="93" width="162.921" height="129" filterUnits="userSpaceOnUse" color-interpolation-filters="sRGB">
<feFlood flood-opacity="0" result="BackgroundImageFix"/>
<feColorMatrix in="SourceAlpha" type="matrix" values="0 0 0 0 0 0 0 0 0 0 0 0 0 0 0 0 0 0 127 0" result="hardAlpha"/>
<feOffset dx="10" dy="5"/>
<feGaussianBlur stdDeviation="2.5"/>
<feComposite in2="hardAlpha" operator="out"/>
<feColorMatrix type="matrix" values="0 0 0 0 0.0325646 0 0 0 0 0.0325646 0 0 0 0 0.0325646 0 0 0 0.25 0"/>
<feBlend mode="normal" in2="BackgroundImageFix" result="effect1_dropShadow_7_2"/>
<feBlend mode="normal" in="SourceGraphic" in2="effect1_dropShadow_7_2" result="shape"/>
<feColorMatrix in="SourceAlpha" type="matrix" values="0 0 0 0 0 0 0 0 0 0 0 0 0 0 0 0 0 0 127 0" result="hardAlpha"/>
<feOffset dy="4"/>
<feGaussianBlur stdDeviation="2"/>
<feComposite in2="hardAlpha" operator="arithmetic" k2="-1" k3="1"/>
<feColorMatrix type="matrix" values="0 0 0 0 0 0 0 0 0 0 0 0 0 0 0 0 0 0 0.25 0"/>
<feBlend mode="normal" in2="shape" result="effect2_innerShadow_7_2"/>
</filter>
<linearGradient id="paint0_linear_7_2" x1="17" y1="250.485" x2="265.5" y2="45.515" gradientUnits="userSpaceOnUse">
<stop offset="0.427885" stop-color="#5603AD"/>
<stop offset="0.9999" stop-color="#DCCAF0"/>
</linearGradient>
<linearGradient id="paint1_linear_7_2" x1="309" y1="158.5" x2="498" y2="158.5" gradientUnits="userSpaceOnUse">
<stop stop-color="#5603AD" stop-opacity="0"/>
<stop offset="1" stop-color="#F59CE6"/>
</linearGradient>
<linearGradient id="paint2_linear_7_2" x1="364.514" y1="52.7373" x2="365.986" y2="275.763" gradientUnits="userSpaceOnUse">
<stop stop-color="#797ADC" stop-opacity="0"/>
<stop offset="1" stop-color="#5603AD"/>
</linearGradient>
</defs>
</svg>
