<svg width="570" height="297" viewBox="0 0 570 297" fill="none" xmlns="http://www.w3.org/2000/svg">
<g clip-path="url(#clip0_7_6)">
<g filter="url(#filter0_d_7_6)">
<path d="M106.5 80L163.5 135L226.5 74.5L212 60.5L267 49.5L254.5 103.5L239 87.5L220 109.5L258.5 148L138 269L17 147L73.5 91.5L84 101.5L37.5 148L51 161V145L84 112V195L98.5 209V116.5L131.5 149.5V242L138.5 248.5L146 241V163.5L163.5 180L178.5 165L179 208L193.5 194V150.5L213.5 133L226.5 146V160.5L239 148L210.5 120L162.5 167.5L80 85.5L138 27L198.5 87.5L188.5 97.5L138 47.5L106.5 80Z" fill="#5B16A1"/>
<path d="M106.5 80L163.5 135L226.5 74.5L212 60.5L267 49.5L254.5 103.5L239 87.5L220 109.5L258.5 148L138 269L17 147L73.5 91.5L84 101.5L37.5 148L51 161V145L84 112V195L98.5 209V116.5L131.5 149.5V242L138.5 248.5L146 241V163.5L163.5 180L178.5 165L179 208L193.5 194V150.5L213.5 133L226.5 146V160.5L239 148L210.5 120L162.5 167.5L80 85.5L138 27L198.5 87.5L188.5 97.5L138 47.5L106.5 80Z" fill="url(#paint0_linear_7_6)"/>
<path d="M106.5 80L163.5 135L226.5 74.5L212 60.5L267 49.5L254.5 103.5L239 87.5L220 109.5L258.5 148L138 269L17 147L73.5 91.5L84 101.5L37.5 148L51 161V145L84 112V195L98.5 209V116.5L131.5 149.5V242L138.5 248.5L146 241V163.5L163.5 180L178.5 165L179 208L193.5 194V150.5L213.5 133L226.5 146V160.5L239 148L210.5 120L162.5 167.5L80 85.5L138 27L198.5 87.5L188.5 97.5L138 47.5L106.5 80Z" stroke="#5B16A1"/>
</g>
<g filter="url(#filter1_di_7_6)">
<path d="M323.11 212V93H374.62C385.273 93 394.453 94.7567 402.16 98.27C409.867 101.67 415.817 106.6 420.01 113.06C424.203 119.52 426.3 127.227 426.3 136.18C426.3 145.02 424.203 152.67 420.01 159.13C415.817 165.477 409.867 170.35 402.16 173.75C394.453 177.15 385.273 178.85 374.62 178.85H338.41L350.65 166.78V212H323.11ZM398.76 212L369.01 168.82H398.42L428.51 212H398.76ZM350.65 169.84L338.41 156.92H373.09C381.59 156.92 387.937 155.107 392.13 151.48C396.323 147.74 398.42 142.64 398.42 136.18C398.42 129.607 396.323 124.507 392.13 120.88C387.937 117.253 381.59 115.44 373.09 115.44H338.41L350.65 102.35V169.84ZM473.45 140.94H530.74V162.36H473.45V140.94ZM475.49 189.9H540.26V212H448.12V93H538.05V115.1H475.49V189.9Z" fill="#5603AD"/>
<path d="M323.11 212V93H374.62C385.273 93 394.453 94.7567 402.16 98.27C409.867 101.67 415.817 106.6 420.01 113.06C424.203 119.52 426.3 127.227 426.3 136.18C426.3 145.02 424.203 152.67 420.01 159.13C415.817 165.477 409.867 170.35 402.16 173.75C394.453 177.15 385.273 178.85 374.62 178.85H338.41L350.65 166.78V212H323.11ZM398.76 212L369.01 168.82H398.42L428.51 212H398.76ZM350.65 169.84L338.41 156.92H373.09C381.59 156.92 387.937 155.107 392.13 151.48C396.323 147.74 398.42 142.64 398.42 136.18C398.42 129.607 396.323 124.507 392.13 120.88C387.937 117.253 381.59 115.44 373.09 115.44H338.41L350.65 102.35V169.84ZM473.45 140.94H530.74V162.36H473.45V140.94ZM475.49 189.9H540.26V212H448.12V93H538.05V115.1H475.49V189.9Z" fill="url(#paint1_linear_7_6)"/>
<path d="M323.11 212V93H374.62C385.273 93 394.453 94.7567 402.16 98.27C409.867 101.67 415.817 106.6 420.01 113.06C424.203 119.52 426.3 127.227 426.3 136.18C426.3 145.02 424.203 152.67 420.01 159.13C415.817 165.477 409.867 170.35 402.16 173.75C394.453 177.15 385.273 178.85 374.62 178.85H338.41L350.65 166.78V212H323.11ZM398.76 212L369.01 168.82H398.42L428.51 212H398.76ZM350.65 169.84L338.41 156.92H373.09C381.59 156.92 387.937 155.107 392.13 151.48C396.323 147.74 398.42 142.64 398.42 136.18C398.42 129.607 396.323 124.507 392.13 120.88C387.937 117.253 381.59 115.44 373.09 115.44H338.41L350.65 102.35V169.84ZM473.45 140.94H530.74V162.36H473.45V140.94ZM475.49 189.9H540.26V212H448.12V93H538.05V115.1H475.49V189.9Z" fill="url(#paint2_linear_7_6)"/>
</g>
</g>
<defs>
<filter id="filter0_d_7_6" x="16.2913" y="26.2914" width="265.371" height="251.418" filterUnits="userSpaceOnUse" color-interpolation-filters="sRGB">
<feFlood flood-opacity="0" result="BackgroundImageFix"/>
<feColorMatrix in="SourceAlpha" type="matrix" values="0 0 0 0 0 0 0 0 0 0 0 0 0 0 0 0 0 0 127 0" result="hardAlpha"/>
<feOffset dx="10" dy="4"/>
<feGaussianBlur stdDeviation="2"/>
<feComposite in2="hardAlpha" operator="out"/>
<feColorMatrix type="matrix" values="0 0 0 0 0 0 0 0 0 0 0 0 0 0 0 0 0 0 0.25 0"/>
<feBlend mode="normal" in2="BackgroundImageFix" result="effect1_dropShadow_7_6"/>
<feBlend mode="normal" in="SourceGraphic" in2="effect1_dropShadow_7_6" result="shape"/>
</filter>
<filter id="filter1_di_7_6" x="323.11" y="93" width="232.15" height="129" filterUnits="userSpaceOnUse" color-interpolation-filters="sRGB">
<feFlood flood-opacity="0" result="BackgroundImageFix"/>
<feColorMatrix in="SourceAlpha" type="matrix" values="0 0 0 0 0 0 0 0 0 0 0 0 0 0 0 0 0 0 127 0" result="hardAlpha"/>
<feOffset dx="10" dy="5"/>
<feGaussianBlur stdDeviation="2.5"/>
<feComposite in2="hardAlpha" operator="out"/>
<feColorMatrix type="matrix" values="0 0 0 0 0.0325646 0 0 0 0 0.0325646 0 0 0 0 0.0325646 0 0 0 0.25 0"/>
<feBlend mode="normal" in2="BackgroundImageFix" result="effect1_dropShadow_7_6"/>
<feBlend mode="normal" in="SourceGraphic" in2="effect1_dropShadow_7_6" result="shape"/>
<feColorMatrix in="SourceAlpha" type="matrix" values="0 0 0 0 0 0 0 0 0 0 0 0 0 0 0 0 0 0 127 0" result="hardAlpha"/>
<feOffset dy="4"/>
<feGaussianBlur stdDeviation="2"/>
<feComposite in2="hardAlpha" operator="arithmetic" k2="-1" k3="1"/>
<feColorMatrix type="matrix" values="0 0 0 0 0 0 0 0 0 0 0 0 0 0 0 0 0 0 0.25 0"/>
<feBlend mode="normal" in2="shape" result="effect2_innerShadow_7_6"/>
</filter>
<linearGradient id="paint0_linear_7_6" x1="17" y1="250.485" x2="265.5" y2="45.515" gradientUnits="userSpaceOnUse">
<stop offset="0.427885" stop-color="#5603AD"/>
<stop offset="0.9999" stop-color="#DCCAF0"/>
</linearGradient>
<linearGradient id="paint1_linear_7_6" x1="309" y1="158.5" x2="583" y2="158.5" gradientUnits="userSpaceOnUse">
<stop stop-color="#5603AD" stop-opacity="0"/>
<stop offset="1" stop-color="#F59CE6"/>
</linearGradient>
<linearGradient id="paint2_linear_7_6" x1="389.48" y1="52.7373" x2="390.496" y2="275.768" gradientUnits="userSpaceOnUse">
<stop stop-color="#797ADC" stop-opacity="0"/>
<stop offset="1" stop-color="#5603AD"/>
</linearGradient>
<clipPath id="clip0_7_6">
<rect width="570" height="297" fill="white"/>
</clipPath>
</defs>
</svg>
